<?xml version="1.0" standalone="no"?>
<!DOCTYPE svg PUBLIC "-//W3C//DTD SVG 20010904//EN"
 "http://www.w3.org/TR/2001/REC-SVG-20010904/DTD/svg10.dtd">
<svg version="1.0" xmlns="http://www.w3.org/2000/svg"
 width="676.000000pt" height="676.000000pt" viewBox="0 0 676.000000 676.000000"
 preserveAspectRatio="xMidYMid meet">
<metadata>
Created by potrace 1.14, written by Peter Selinger 2001-2017
</metadata>
<g transform="translate(0.000000,676.000000) scale(0.100000,-0.100000)"
fill="#000000" stroke="none">
<path d="M4780 5119 c-89 -11 -131 -19 -210 -40 -94 -24 -260 -88 -260 -100 0
-5 16 -26 35 -46 36 -38 105 -163 105 -189 0 -11 10 -9 43 10 99 58 318 90
592 85 11 0 55 0 98 1 43 0 82 -2 88 -5 5 -4 9 -3 9 2 0 8 189 7 223 -1 9 -2
17 -1 17 2 0 7 45 7 300 -1 132 -4 234 -25 303 -60 80 -42 133 -129 144 -239
3 -34 7 -65 10 -68 8 -9 248 -6 261 3 24 19 8 174 -30 277 -35 99 -86 166
-173 229 -49 35 -134 81 -158 85 -7 1 -16 4 -22 8 -5 3 -35 11 -65 17 -76 16
-87 18 -150 26 -68 10 -1084 13 -1160 4z"/>
<path d="M248 5102 c-15 -2 -29 -11 -31 -20 -8 -32 -2 -2140 6 -2149 5 -4 58
-8 118 -9 92 -1 111 1 117 15 5 9 8 229 8 489 l-1 472 807 0 807 0 0 -482 c1
-315 4 -484 11 -488 5 -3 61 -6 122 -6 l113 1 3 1079 c1 712 -1 1083 -8 1090
-9 9 -226 13 -235 4 -4 -3 -6 -54 -4 -88 0 -8 0 -197 -1 -420 l-1 -405 -805 0
c-539 0 -804 3 -805 10 -1 5 -2 209 -3 452 -1 243 -4 445 -8 448 -7 8 -163 12
-210 7z"/>
<path d="M2478 5102 l-38 -3 0 -148 0 -148 638 0 c350 0 670 -3 711 -7 70 -7
85 -11 159 -43 90 -39 148 -150 139 -268 -8 -108 -48 -177 -132 -225 -76 -43
-164 -57 -354 -56 -89 0 -161 -2 -161 -6 0 -4 -6 -5 -14 -2 -21 8 -106 10
-106 2 0 -4 -6 -5 -14 -2 -21 8 -106 10 -106 2 0 -4 -6 -5 -14 -2 -21 8 -106
10 -106 2 0 -4 -6 -5 -14 -2 -21 8 -106 10 -106 2 0 -4 -6 -5 -14 -2 -23 9
-106 10 -106 1 0 -5 -5 -5 -11 -2 -8 6 -241 9 -361 6 l-28 -1 0 -150 0 -150
693 -1 c720 -1 764 -2 831 -20 185 -50 240 -162 231 -469 -3 -91 -7 -189 -10
-218 -12 -124 -12 -253 -1 -260 12 -8 254 -12 273 -5 18 7 15 775 -3 848 -36
150 -92 241 -192 309 l-42 29 36 33 c43 41 90 142 103 221 10 61 8 268 -3 317
-22 94 -76 186 -149 252 -101 93 -248 146 -442 161 -83 6 -1221 10 -1287 5z"/>
<path d="M5232 3972 c-11 -21 -10 -248 2 -259 4 -4 236 -8 514 -8 l507 0 -1
-80 c0 -124 -25 -235 -66 -295 -39 -58 -89 -84 -223 -117 -16 -4 -289 -8 -605
-9 -500 -2 -588 0 -677 15 l-103 17 0 -142 c0 -165 -14 -149 140 -161 115 -9
1145 -10 1250 -1 97 8 199 34 278 69 73 33 175 128 211 199 27 52 62 154 66
190 1 14 5 43 9 65 20 124 25 497 7 519 -11 13 -87 15 -657 15 -598 0 -644 -1
-652 -17z"/>
<path d="M383 2682 c-40 -2 -74 -7 -74 -12 -8 -59 -1 -70 40 -67 75 6 75 8 75
-154 l1 -144 40 0 40 0 0 148 c0 93 3 147 10 148 5 0 31 1 58 1 l47 -1 0 40
c0 37 -1 39 -32 40 -18 0 -55 1 -83 2 -27 1 -83 1 -122 -1z"/>
<path d="M1550 2680 c-9 -5 -170 -363 -170 -377 0 -2 20 -3 45 -3 43 0 44 1
55 40 6 22 14 41 18 41 24 5 154 4 160 -1 4 -3 15 -22 24 -42 16 -35 21 -38
58 -38 45 0 45 0 26 43 -8 18 -44 99 -79 182 -60 140 -66 150 -95 156 -17 3
-36 3 -42 -1z m55 -157 c11 -26 22 -51 23 -55 2 -4 -19 -8 -47 -8 -50 0 -60 6
-42 26 5 5 14 26 21 47 6 20 15 37 18 37 4 0 16 -21 27 -47z"/>
<path d="M2668 2673 c-33 -14 -67 -48 -69 -70 -1 -7 -2 -23 -3 -35 -3 -37 20
-74 58 -92 19 -9 39 -16 45 -16 24 0 90 -33 95 -47 17 -43 -56 -57 -126 -23
l-41 20 -25 -27 -24 -26 23 -19 c26 -20 85 -39 134 -42 80 -6 145 46 145 116
0 54 -38 91 -116 113 -32 10 -67 25 -77 35 -18 16 -18 18 -1 34 20 21 80 17
117 -7 22 -14 24 -13 45 20 l23 34 -48 21 c-56 25 -112 29 -155 11z"/>
<path d="M4161 2668 c-42 -20 -60 -47 -65 -93 -5 -60 24 -89 123 -120 71 -22
93 -44 72 -69 -19 -22 -79 -20 -126 4 l-40 21 -22 -27 -21 -27 25 -21 c51 -39
152 -52 213 -26 58 25 83 118 44 161 -23 25 -67 49 -103 56 -45 8 -76 27 -79
50 -2 16 3 24 20 28 28 7 68 1 96 -14 30 -16 36 -14 55 19 l18 29 -40 21 c-57
28 -122 32 -170 8z"/>
<path d="M4696 2678 c-41 -9 -83 -48 -88 -83 -6 -36 10 -89 33 -106 12 -9 48
-24 78 -32 77 -22 97 -37 82 -65 -15 -29 -67 -29 -124 -2 l-41 20 -22 -27
c-12 -16 -20 -31 -18 -35 12 -19 118 -55 154 -53 91 7 140 48 140 117 0 56
-37 90 -128 117 -64 19 -72 25 -72 46 0 34 41 43 99 22 48 -17 62 -13 82 24 8
15 3 22 -28 38 -47 23 -96 30 -147 19z"/>
<path d="M5595 2673 c-48 -16 -90 -55 -116 -105 -22 -43 -24 -84 -7 -139 39
-133 232 -179 335 -80 76 72 76 209 2 281 -53 50 -142 68 -214 43z m135 -85
c25 -16 50 -67 50 -105 0 -34 -30 -82 -62 -99 -52 -29 -126 -7 -153 46 -44 85
18 187 107 176 20 -3 46 -11 58 -18z"/>
<path d="M850 2490 l0 -191 43 3 42 3 0 55 0 55 35 3 c31 2 38 -2 60 -39 42
-69 56 -79 107 -79 l45 0 -26 34 c-14 19 -26 38 -26 41 0 4 -9 18 -20 32 l-20
26 34 25 c28 20 36 32 41 72 8 57 -6 93 -48 124 -24 18 -46 21 -148 24 l-119
4 0 -192z m211 104 c32 -19 24 -93 -10 -95 -87 -6 -111 -5 -112 5 -5 43 -3 92
5 98 10 7 103 1 117 -8z"/>
<path d="M2009 2623 c0 -32 -1 -116 -1 -188 l1 -130 40 -3 41 -3 0 115 c0 64
3 116 8 115 4 0 44 -51 90 -113 78 -106 85 -112 121 -114 l37 -3 0 191 1 190
-43 0 -42 0 0 -82 c0 -46 0 -99 -1 -118 l-1 -35 -27 40 c-14 22 -29 42 -32 45
-4 3 -31 38 -61 78 -51 67 -57 72 -92 72 l-38 0 -1 -57z"/>
<path d="M3116 2492 l2 -187 41 -3 c47 -4 44 -16 42 143 l-1 100 51 -77 c29
-43 54 -78 58 -78 3 0 19 21 36 48 16 26 33 52 38 57 4 6 14 19 22 30 14 18
15 12 14 -65 -1 -173 -5 -160 41 -160 25 0 40 5 41 13 1 13 1 347 0 360 -1 11
-101 8 -101 -3 0 -19 -84 -140 -94 -137 -6 2 -15 12 -21 23 -5 11 -25 43 -44
72 -32 50 -35 52 -80 52 l-46 0 1 -188z"/>
<path d="M3763 2492 l-1 -189 38 -1 c22 -1 40 3 42 11 2 6 4 91 3 187 l0 175
-41 3 -40 3 -1 -189z"/>
<path d="M5130 2490 l0 -191 43 3 42 3 0 185 0 185 -42 3 -43 3 0 -191z"/>
<path d="M6110 2490 l0 -190 40 0 40 0 1 58 c0 31 0 84 -1 116 -2 73 -2 73
105 -68 77 -102 81 -106 115 -104 l35 3 1 188 1 187 -41 0 -41 0 1 -115 c1
-63 0 -115 -1 -115 -2 0 -43 52 -91 115 -85 110 -91 115 -126 115 l-38 0 0
-190z"/>
<path d="M2102 1875 c-4 -5 -7 -56 -7 -112 l0 -102 82 1 c59 0 83 4 87 14 7
19 -12 29 -59 30 -60 2 -61 2 -62 24 -2 21 5 23 75 22 27 0 32 3 32 22 0 20
-5 23 -47 22 -33 0 -49 5 -57 16 -15 25 -4 31 59 31 47 0 55 2 55 18 0 11 -7
19 -17 20 -88 4 -136 2 -141 -6z"/>
<path d="M2433 1877 c-26 -15 -33 -28 -31 -61 3 -30 45 -66 79 -66 21 0 39
-20 32 -36 -7 -18 -31 -18 -67 1 -26 14 -30 14 -41 -2 -16 -21 0 -35 57 -51
32 -9 42 -7 70 11 58 40 42 99 -34 121 -48 15 -63 42 -26 48 13 2 33 -1 46 -6
18 -7 26 -6 33 5 14 22 11 25 -28 36 -46 13 -65 13 -90 0z"/>
<path d="M2720 1880 c-47 -7 -47 -33 0 -40 l34 -5 1 -85 c0 -75 2 -85 19 -88
27 -6 33 10 31 94 -1 41 2 77 6 79 4 3 19 6 33 7 19 2 26 8 26 23 0 18 -6 20
-58 20 -31 0 -73 -2 -92 -5z"/>
<path d="M3007 1875 c-3 -9 -1 -189 2 -208 2 -12 113 -5 142 9 83 41 76 171
-10 199 -36 11 -130 11 -134 0z m138 -58 c23 -33 19 -74 -10 -93 -29 -19 -75
-25 -76 -10 -6 50 -4 113 2 122 13 17 68 4 84 -19z"/>
<path d="M3735 1877 c-38 -12 -37 -11 -29 -31 3 -9 14 -15 23 -14 14 3 16 -10
19 -83 3 -85 3 -87 27 -85 23 1 24 3 24 101 1 125 -4 133 -64 112z"/>
<path d="M3996 1883 c-33 -8 -51 -34 -51 -74 0 -50 15 -63 70 -64 45 0 57 -12
32 -34 -13 -10 -47 -8 -66 3 -5 3 -15 -1 -22 -10 -11 -14 -10 -18 6 -30 31
-23 86 -17 117 11 36 33 46 104 23 158 -13 31 -67 50 -109 40z m64 -52 c4 -7
5 -22 2 -33 -7 -27 -65 -22 -71 6 -6 36 50 57 69 27z"/>
<path d="M4260 1882 c-6 -2 -10 -12 -10 -21 0 -14 9 -18 46 -17 25 1 48 -2 50
-6 4 -7 -16 -47 -61 -123 -30 -51 -30 -55 0 -55 20 0 32 15 74 93 51 93 61
126 39 128 -43 3 -130 3 -138 1z"/>
<path d="M4559 1880 c-11 -7 -22 -110 -12 -111 5 -1 25 -3 46 -4 46 -2 66 -19
51 -42 -14 -22 -50 -26 -69 -7 -15 15 -17 15 -30 -2 -13 -17 -12 -21 6 -36 28
-23 90 -23 119 0 31 25 32 88 1 113 -14 11 -33 17 -48 15 -15 -3 -26 1 -30 10
-8 21 1 26 48 28 32 1 43 5 45 19 1 9 -3 17 -9 18 -64 4 -110 3 -118 -1z"/>
<path d="M300 1775 c0 -13 95 -15 795 -15 700 0 795 2 795 15 0 13 -95 15
-795 15 -700 0 -795 -2 -795 -15z"/>
<path d="M4873 1775 c0 -13 96 -15 799 -15 703 0 798 2 798 15 0 13 -95 15
-798 15 -703 0 -799 -2 -799 -15z"/>
<path d="M3353 1712 c-34 -5 -32 -52 1 -52 30 0 39 12 29 37 -5 11 -16 17 -30
15z"/>
</g>
</svg>
